<mxfile>
    <diagram id="dLBVXeiTEgByt1S6cGNW" name="Page-1">
        <mxGraphModel dx="1341" dy="1782" grid="1" gridSize="10" guides="1" tooltips="1" connect="1" arrows="1" fold="1" page="1" pageScale="1" pageWidth="850" pageHeight="1100" math="0" shadow="0">
            <root>
                <mxCell id="0"/>
                <mxCell id="12" value="Grouping" parent="0"/>
                <mxCell id="104" value="" style="rounded=1;whiteSpace=wrap;html=1;absoluteArcSize=1;arcSize=14;strokeWidth=2;" vertex="1" parent="12">
                    <mxGeometry x="-520" y="-70" width="1470" height="1250" as="geometry"/>
                </mxCell>
                <mxCell id="80" value="" style="rounded=0;whiteSpace=wrap;html=1;" vertex="1" parent="12">
                    <mxGeometry x="200" y="830" width="480" height="270" as="geometry"/>
                </mxCell>
                <mxCell id="13" value="" style="whiteSpace=wrap;html=1;" vertex="1" parent="12">
                    <mxGeometry x="-320" y="150" width="870" height="610" as="geometry"/>
                </mxCell>
                <mxCell id="77" value="" style="rounded=0;whiteSpace=wrap;html=1;" vertex="1" parent="12">
                    <mxGeometry x="-190" y="250" width="710" height="490" as="geometry"/>
                </mxCell>
                <mxCell id="76" value="" style="rounded=0;whiteSpace=wrap;html=1;" vertex="1" parent="12">
                    <mxGeometry x="-90" y="350" width="590" height="380" as="geometry"/>
                </mxCell>
                <mxCell id="75" value="" style="rounded=0;whiteSpace=wrap;html=1;" vertex="1" parent="12">
                    <mxGeometry x="-10" y="436.39" width="490" height="273.61" as="geometry"/>
                </mxCell>
                <mxCell id="28" value="" style="whiteSpace=wrap;html=1;" vertex="1" parent="12">
                    <mxGeometry x="-310" y="820" width="360" height="290" as="geometry"/>
                </mxCell>
                <mxCell id="50" value="" style="group" vertex="1" connectable="0" parent="12">
                    <mxGeometry x="-120" y="320" width="67.5" height="90" as="geometry"/>
                </mxCell>
                <mxCell id="44" value="" style="html=1;dashed=0;whitespace=wrap;fillColor=#2875E2;strokeColor=#ffffff;points=[[0.005,0.63,0],[0.1,0.2,0],[0.9,0.2,0],[0.5,0,0],[0.995,0.63,0],[0.72,0.99,0],[0.5,1,0],[0.28,0.99,0]];shape=mxgraph.kubernetes.icon;prIcon=job" vertex="1" parent="50">
                    <mxGeometry width="67.5" height="64.8" as="geometry"/>
                </mxCell>
                <mxCell id="45" value="Job" style="text;html=1;strokeColor=none;fillColor=none;align=center;verticalAlign=middle;whiteSpace=wrap;rounded=0;" vertex="1" parent="50">
                    <mxGeometry x="13.75" y="70" width="40" height="20" as="geometry"/>
                </mxCell>
                <mxCell id="72" value="" style="group" vertex="1" connectable="0" parent="12">
                    <mxGeometry x="-40" y="410" width="67.5" height="92.77999999999997" as="geometry"/>
                </mxCell>
                <mxCell id="66" value="" style="verticalLabelPosition=bottom;html=1;verticalAlign=top;align=center;strokeColor=none;fillColor=#00BEF2;shape=mxgraph.azure.startup_task;pointerEvents=1;" vertex="1" parent="72">
                    <mxGeometry width="67.5" height="72.78" as="geometry"/>
                </mxCell>
                <mxCell id="67" value="Task" style="text;html=1;strokeColor=none;fillColor=none;align=center;verticalAlign=middle;whiteSpace=wrap;rounded=0;" vertex="1" parent="72">
                    <mxGeometry x="13.75" y="72.77999999999997" width="40" height="20" as="geometry"/>
                </mxCell>
                <mxCell id="78" value="" style="aspect=fixed;html=1;points=[];align=center;image;fontSize=12;image=img/lib/azure2/storage/Storage_Accounts_Classic.svg;" vertex="1" parent="12">
                    <mxGeometry x="170" y="800" width="65" height="52" as="geometry"/>
                </mxCell>
                <mxCell id="81" value="" style="rounded=0;whiteSpace=wrap;html=1;" vertex="1" parent="12">
                    <mxGeometry x="290" y="900" width="340" height="170" as="geometry"/>
                </mxCell>
                <mxCell id="79" value="" style="verticalLabelPosition=bottom;html=1;verticalAlign=top;align=center;strokeColor=none;fillColor=#00BEF2;shape=mxgraph.azure.storage_queue;" vertex="1" parent="12">
                    <mxGeometry x="250" y="870" width="70" height="63" as="geometry"/>
                </mxCell>
                <mxCell id="83" value="30" style="shape=step;perimeter=stepPerimeter;fixedSize=1;points=[];" vertex="1" parent="12">
                    <mxGeometry x="320" y="960" width="100" height="57" as="geometry"/>
                </mxCell>
                <mxCell id="84" value="30" style="shape=step;perimeter=stepPerimeter;fixedSize=1;points=[];" vertex="1" parent="12">
                    <mxGeometry x="408" y="960" width="100" height="57" as="geometry"/>
                </mxCell>
                <mxCell id="85" value="30" style="shape=step;perimeter=stepPerimeter;fixedSize=1;points=[];" vertex="1" parent="12">
                    <mxGeometry x="496" y="960" width="100" height="57" as="geometry"/>
                </mxCell>
                <mxCell id="91" style="edgeStyle=orthogonalEdgeStyle;rounded=0;orthogonalLoop=1;jettySize=auto;html=1;entryX=0.223;entryY=1;entryDx=0;entryDy=0;entryPerimeter=0;" edge="1" parent="12" source="90" target="13">
                    <mxGeometry relative="1" as="geometry"/>
                </mxCell>
                <mxCell id="95" value="create pool + job + task" style="edgeLabel;html=1;align=center;verticalAlign=middle;resizable=0;points=[];" vertex="1" connectable="0" parent="91">
                    <mxGeometry x="0.119" y="3" relative="1" as="geometry">
                        <mxPoint as="offset"/>
                    </mxGeometry>
                </mxCell>
                <mxCell id="90" value="azure-batch" style="rounded=1;whiteSpace=wrap;html=1;" vertex="1" parent="12">
                    <mxGeometry x="-230" y="852" width="120" height="60" as="geometry"/>
                </mxCell>
                <mxCell id="93" style="edgeStyle=orthogonalEdgeStyle;rounded=0;orthogonalLoop=1;jettySize=auto;html=1;entryX=0;entryY=0.5;entryDx=0;entryDy=0;" edge="1" parent="12" source="92" target="81">
                    <mxGeometry relative="1" as="geometry"/>
                </mxCell>
                <mxCell id="94" value="datafill queue" style="edgeLabel;html=1;align=center;verticalAlign=middle;resizable=0;points=[];" vertex="1" connectable="0" parent="93">
                    <mxGeometry x="0.0665" y="1" relative="1" as="geometry">
                        <mxPoint as="offset"/>
                    </mxGeometry>
                </mxCell>
                <mxCell id="92" value="workload" style="rounded=1;whiteSpace=wrap;html=1;" vertex="1" parent="12">
                    <mxGeometry x="-230" y="958.5" width="120" height="60" as="geometry"/>
                </mxCell>
                <mxCell id="96" style="edgeStyle=orthogonalEdgeStyle;rounded=0;orthogonalLoop=1;jettySize=auto;html=1;entryX=0.25;entryY=1;entryDx=0;entryDy=0;" edge="1" parent="12" source="6" target="90">
                    <mxGeometry relative="1" as="geometry"/>
                </mxCell>
                <mxCell id="97" style="edgeStyle=orthogonalEdgeStyle;rounded=0;orthogonalLoop=1;jettySize=auto;html=1;entryX=0.414;entryY=-0.006;entryDx=0;entryDy=0;entryPerimeter=0;" edge="1" parent="12" source="6" target="92">
                    <mxGeometry relative="1" as="geometry"/>
                </mxCell>
                <mxCell id="98" value="foreach (system.procCount()) {&lt;br&gt;&amp;nbsp; createThread()&lt;br&gt;}&lt;br&gt;when (allThreadsComplete() {&lt;br&gt;&amp;nbsp; &amp;nbsp;return;&lt;br&gt;}&lt;br&gt;&lt;br&gt;&lt;br&gt;&lt;br&gt;&lt;br&gt;&lt;br&gt;&lt;br&gt;" style="shape=process;whiteSpace=wrap;html=1;backgroundOutline=1;align=left;" vertex="1" parent="12">
                    <mxGeometry x="35" y="470" width="410" height="197.22" as="geometry"/>
                </mxCell>
                <mxCell id="99" value="Text" style="text;html=1;strokeColor=none;fillColor=none;align=center;verticalAlign=middle;whiteSpace=wrap;rounded=0;" vertex="1" parent="12">
                    <mxGeometry x="260" y="450" width="40" height="20" as="geometry"/>
                </mxCell>
                <mxCell id="100" value="Text" style="text;html=1;strokeColor=none;fillColor=none;align=center;verticalAlign=middle;whiteSpace=wrap;rounded=0;" vertex="1" parent="12">
                    <mxGeometry x="260" y="450" width="40" height="20" as="geometry"/>
                </mxCell>
                <mxCell id="102" value="" style="group" vertex="1" connectable="0" parent="12">
                    <mxGeometry x="148" y="840" width="260" height="100" as="geometry"/>
                </mxCell>
                <mxCell id="103" value="" style="group" vertex="1" connectable="0" parent="102">
                    <mxGeometry x="-38" y="-270" width="260" height="100" as="geometry"/>
                </mxCell>
                <mxCell id="74" value="while (item = queue.getMessage()) {&lt;br&gt;&amp;nbsp; sleep(item)&lt;br&gt;}&lt;br&gt;return;" style="shape=process;whiteSpace=wrap;html=1;backgroundOutline=1;align=left;" vertex="1" parent="103">
                    <mxGeometry width="260" height="80" as="geometry"/>
                </mxCell>
                <mxCell id="101" value="Thread" style="text;html=1;strokeColor=none;fillColor=none;align=center;verticalAlign=middle;whiteSpace=wrap;rounded=0;" vertex="1" parent="103">
                    <mxGeometry x="110" y="80" width="40" height="20" as="geometry"/>
                </mxCell>
                <mxCell id="1" parent="0"/>
                <mxCell id="6" value="User" style="shape=umlActor;verticalLabelPosition=bottom;verticalAlign=top;html=1;outlineConnect=0;" vertex="1" parent="1">
                    <mxGeometry x="-470" y="910" width="30" height="60" as="geometry"/>
                </mxCell>
                <mxCell id="10" value="&lt;font style=&quot;font-size: 48px&quot;&gt;Azure Batch Queue&lt;/font&gt;" style="text;html=1;align=center;verticalAlign=middle;resizable=0;points=[];autosize=1;" vertex="1" parent="1">
                    <mxGeometry x="-180" y="40" width="430" height="30" as="geometry"/>
                </mxCell>
                <mxCell id="11" value="Azure Batch Account" style="aspect=fixed;html=1;points=[];align=center;image;fontSize=12;image=img/lib/azure2/compute/Batch_Accounts.svg;" vertex="1" parent="1">
                    <mxGeometry x="-350" y="130" width="68" height="64" as="geometry"/>
                </mxCell>
                <mxCell id="14" value="Pool" style="aspect=fixed;html=1;points=[];align=center;image;fontSize=12;image=img/lib/azure2/compute/VM_Scale_Sets.svg;" vertex="1" parent="1">
                    <mxGeometry x="-230" y="220" width="68" height="68" as="geometry"/>
                </mxCell>
                <mxCell id="19" value="" style="aspect=fixed;html=1;points=[];align=center;image;fontSize=12;image=img/lib/azure2/compute/Virtual_Machine.svg;" vertex="1" parent="1">
                    <mxGeometry x="-340" y="790" width="69" height="64" as="geometry"/>
                </mxCell>
                <mxCell id="26" value="Legend" parent="0"/>
                <mxCell id="3" value="Azure Batch Account" style="text;html=1;align=center;verticalAlign=middle;resizable=0;points=[];autosize=1;" vertex="1" parent="26">
                    <mxGeometry x="720" y="110" width="130" height="20" as="geometry"/>
                </mxCell>
                <mxCell id="27" value="" style="group" vertex="1" connectable="0" parent="26">
                    <mxGeometry x="595" width="230" height="693" as="geometry"/>
                </mxCell>
                <mxCell id="15" value="" style="html=1;dashed=0;whitespace=wrap;fillColor=#2875E2;strokeColor=#ffffff;points=[[0.005,0.63,0],[0.1,0.2,0],[0.9,0.2,0],[0.5,0,0],[0.995,0.63,0],[0.72,0.99,0],[0.5,1,0],[0.28,0.99,0]];shape=mxgraph.kubernetes.icon;prIcon=job" vertex="1" parent="27">
                    <mxGeometry x="45" y="350" width="67.5" height="64.8" as="geometry"/>
                </mxCell>
                <mxCell id="16" value="" style="verticalLabelPosition=bottom;html=1;verticalAlign=top;align=center;strokeColor=none;fillColor=#00BEF2;shape=mxgraph.azure.startup_task;pointerEvents=1;" vertex="1" parent="27">
                    <mxGeometry x="45" y="438" width="67.5" height="72.78" as="geometry"/>
                </mxCell>
                <mxCell id="17" value="Job" style="text;html=1;align=center;verticalAlign=middle;resizable=0;points=[];autosize=1;" vertex="1" parent="27">
                    <mxGeometry x="120" y="360" width="30" height="20" as="geometry"/>
                </mxCell>
                <mxCell id="18" value="Task" style="text;html=1;align=center;verticalAlign=middle;resizable=0;points=[];autosize=1;" vertex="1" parent="27">
                    <mxGeometry x="120" y="453" width="40" height="20" as="geometry"/>
                </mxCell>
                <mxCell id="21" value="" style="verticalLabelPosition=bottom;html=1;verticalAlign=top;align=center;strokeColor=none;fillColor=#00BEF2;shape=mxgraph.azure.storage_queue;" vertex="1" parent="27">
                    <mxGeometry x="50" y="630" width="70" height="63" as="geometry"/>
                </mxCell>
                <mxCell id="22" value="" style="aspect=fixed;html=1;points=[];align=center;image;fontSize=12;image=img/lib/azure2/storage/Storage_Accounts_Classic.svg;" vertex="1" parent="27">
                    <mxGeometry x="47.5" y="550" width="65" height="52" as="geometry"/>
                </mxCell>
                <mxCell id="23" value="Storage Account" style="text;html=1;align=center;verticalAlign=middle;resizable=0;points=[];autosize=1;" vertex="1" parent="27">
                    <mxGeometry x="120" y="560" width="100" height="20" as="geometry"/>
                </mxCell>
                <mxCell id="24" value="Storage Queue&amp;nbsp;&amp;nbsp;" style="text;html=1;align=center;verticalAlign=middle;resizable=0;points=[];autosize=1;" vertex="1" parent="27">
                    <mxGeometry x="120" y="651.5" width="100" height="20" as="geometry"/>
                </mxCell>
                <mxCell id="2" value="" style="aspect=fixed;html=1;points=[];align=center;image;fontSize=12;image=img/lib/azure2/compute/Batch_Accounts.svg;" vertex="1" parent="27">
                    <mxGeometry x="45" y="80" width="68" height="64" as="geometry"/>
                </mxCell>
                <mxCell id="4" value="" style="aspect=fixed;html=1;points=[];align=center;image;fontSize=12;image=img/lib/azure2/compute/VM_Scale_Sets.svg;" vertex="1" parent="27">
                    <mxGeometry x="45" y="170" width="68" height="68" as="geometry"/>
                </mxCell>
                <mxCell id="5" value="VM Scale Set" style="text;html=1;align=center;verticalAlign=middle;resizable=0;points=[];autosize=1;" vertex="1" parent="27">
                    <mxGeometry x="125" y="190" width="90" height="20" as="geometry"/>
                </mxCell>
                <mxCell id="7" value="" style="aspect=fixed;html=1;points=[];align=center;image;fontSize=12;image=img/lib/azure2/compute/Virtual_Machine.svg;" vertex="1" parent="27">
                    <mxGeometry x="45" y="260" width="69" height="64" as="geometry"/>
                </mxCell>
                <mxCell id="9" value="Virtual Machine&amp;nbsp; &amp;nbsp;" style="text;html=1;align=center;verticalAlign=middle;resizable=0;points=[];autosize=1;" vertex="1" parent="27">
                    <mxGeometry x="120" y="270" width="110" height="20" as="geometry"/>
                </mxCell>
                <mxCell id="25" value="&lt;font style=&quot;font-size: 48px&quot;&gt;Legend&lt;/font&gt;" style="text;html=1;align=center;verticalAlign=middle;resizable=0;points=[];autosize=1;" vertex="1" parent="27">
                    <mxGeometry width="180" height="30" as="geometry"/>
                </mxCell>
            </root>
        </mxGraphModel>
    </diagram>
</mxfile>